<?xml version="1.0" encoding="UTF-8" standalone="no"?>
<!-- Created with Inkscape (http://www.inkscape.org/) -->

<svg
   xmlns:dc="http://purl.org/dc/elements/1.1/"
   xmlns:cc="http://creativecommons.org/ns#"
   xmlns:rdf="http://www.w3.org/1999/02/22-rdf-syntax-ns#"
   xmlns:svg="http://www.w3.org/2000/svg"
   xmlns="http://www.w3.org/2000/svg"
   xmlns:sodipodi="http://sodipodi.sourceforge.net/DTD/sodipodi-0.dtd"
   xmlns:inkscape="http://www.inkscape.org/namespaces/inkscape"
   width="2560.1699"
   height="768.04999"
   id="svg2988"
   version="1.1"
   inkscape:version="0.48.4 r9939"
   sodipodi:docname="logo.svg"
   inkscape:export-filename="/home/pivarski/diana/histbook/docs/source/logo-500px.png"
   inkscape:export-xdpi="17.576958"
   inkscape:export-ydpi="17.576958">
  <defs
     id="defs2990" />
  <sodipodi:namedview
     id="base"
     pagecolor="#ffffff"
     bordercolor="#666666"
     borderopacity="1.0"
     inkscape:pageopacity="0.0"
     inkscape:pageshadow="2"
     inkscape:zoom="0.35"
     inkscape:cx="1804.9335"
     inkscape:cy="570.96209"
     inkscape:document-units="px"
     inkscape:current-layer="layer1"
     showgrid="false"
     fit-margin-top="20"
     fit-margin-left="20"
     fit-margin-right="20"
     fit-margin-bottom="2"
     inkscape:window-width="1914"
     inkscape:window-height="1027"
     inkscape:window-x="0"
     inkscape:window-y="0"
     inkscape:window-maximized="0" />
  <metadata
     id="metadata2993">
    <rdf:RDF>
      <cc:Work
         rdf:about="">
        <dc:format>image/svg+xml</dc:format>
        <dc:type
           rdf:resource="http://purl.org/dc/dcmitype/StillImage" />
        <dc:title></dc:title>
      </cc:Work>
    </rdf:RDF>
  </metadata>
  <g
     inkscape:label="Layer 1"
     inkscape:groupmode="layer"
     id="layer1"
     transform="translate(911.55169,62.410814)">
    <path
       sodipodi:nodetypes="csccccccscccccsscsssccccsc"
       inkscape:connector-curvature="0"
       id="path3037"
       style="font-size:675.13439941px;font-style:normal;font-variant:normal;font-weight:normal;font-stretch:normal;text-align:center;line-height:125%;letter-spacing:0px;word-spacing:0px;text-anchor:middle;color:#000000;fill:#bcbcbc;fill-opacity:1;fill-rule:nonzero;stroke:none;stroke-width:10;marker:none;visibility:visible;display:inline;overflow:visible;enable-background:accumulate;font-family:DejaVu Sans;-inkscape-font-specification:Sans Bold"
       d="m -556.68503,463.9665 c 0,-68.18851 -37.13245,-107.34637 -99.91989,-107.34637 -49.28476,0 -79.6659,22.9546 -122.19933,51.31021 l 0,-209.29166 -4.72594,-4.05081 -105.32096,16.87836 0,16.87836 25.6551,3.37568 c 17.55348,2.70053 21.6043,6.07623 21.6043,30.38104 l 0,374.69959 c 0.67514,33.08156 -2.70058,35.78213 -49.95994,39.1578 l 0,19.5789 164.05766,0 0,-19.5789 c -46.58423,-3.37567 -50.63508,-6.07624 -50.63508,-39.1578 l 0,-157.98144 c 0,-16.87835 0.67514,-26.33026 6.07621,-36.45726 14.17781,-27.00535 45.23404,-49.28481 81.01613,-49.28481 45.90909,0 70.88911,25.65516 70.88911,84.3918 l 0,159.33171 c 0,33.08156 -3.37572,35.78213 -50.63508,39.1578 l 0,19.5789 164.73279,0 0,-19.5789 c -46.58423,-3.37567 -50.63508,-6.07624 -50.63508,-39.1578 l 0,-172.8344" />
    <path
       sodipodi:nodetypes="cccssccccsccccsscc"
       inkscape:connector-curvature="0"
       id="path3039"
       style="font-size:675.13439941px;font-style:normal;font-variant:normal;font-weight:normal;font-stretch:normal;text-align:center;line-height:125%;letter-spacing:0px;word-spacing:0px;text-anchor:middle;color:#000000;fill:#bcbcbc;fill-opacity:1;fill-rule:nonzero;stroke:none;stroke-width:10;marker:none;visibility:visible;display:inline;overflow:visible;enable-background:accumulate;font-family:DejaVu Sans;-inkscape-font-specification:Sans Bold"
       d="m -472.65814,373.49849 0,16.87836 25.65511,3.37567 c 17.55347,2.70054 21.6043,6.07624 21.6043,30.38105 l 0,212.66733 c 0,34.43182 -2.02545,35.78213 -50.63508,39.1578 l 0,19.5789 164.73279,0 0,-19.5789 c -47.93449,-3.37567 -50.88446,-4.72688 -50.63508,-39.1578 l 0,-276.12996 -4.72594,-4.05081 -105.9961,16.87836 m 78.31559,-132.68199 c -24.30481,0 -41.1832,17.55352 -41.1832,41.85833 0,23.62969 16.87839,40.50807 41.1832,40.50807 24.97995,0 40.50806,-16.87838 41.1832,-40.50807 0,-24.30481 -16.20325,-41.85833 -41.1832,-41.85833" />
    <path
       sodipodi:nodetypes="ccsccsscccssccscc"
       inkscape:connector-curvature="0"
       id="path3041"
       style="font-size:675.13439941px;font-style:normal;font-variant:normal;font-weight:normal;font-stretch:normal;text-align:center;line-height:125%;letter-spacing:0px;word-spacing:0px;text-anchor:middle;color:#000000;fill:#bcbcbc;fill-opacity:1;fill-rule:nonzero;stroke:none;stroke-width:10;marker:none;visibility:visible;display:inline;overflow:visible;enable-background:accumulate;font-family:DejaVu Sans;-inkscape-font-specification:Sans Bold"
       d="m -71.38915,458.56542 0,-78.99072 c -22.27941,-16.20321 -56.71132,-22.95457 -87.09234,-22.95457 -72.91444,0 -122.19932,34.43192 -122.87446,98.56962 0.67514,56.0361 45.9092,81.01615 101.9453,97.89449 30.38101,9.45187 72.91451,24.98002 72.91451,70.88911 0,34.43182 -27.00541,56.03616 -62.7875,56.03616 -54.68583,0 -85.06695,-39.83299 -98.56962,-97.21936 l -19.5789,0 6.75135,88.44261 c 24.30481,21.60428 65.48807,32.40645 105.32096,32.40645 80.34092,0 126.25014,-42.53352 126.25014,-99.91989 0,-59.41177 -36.45733,-86.41723 -105.9961,-108.0215 -27.68049,-8.77674 -72.23939,-22.95461 -72.23939,-60.7621 0.67514,-35.10695 27.00541,-54.68589 60.7621,-54.68589 47.93449,0 70.88912,37.13244 75.61505,78.31559 l 19.5789,0" />
    <path
       sodipodi:nodetypes="cccccccccssccsscc"
       inkscape:connector-curvature="0"
       id="path3043"
       style="font-size:675.13439941px;font-style:normal;font-variant:normal;font-weight:normal;font-stretch:normal;text-align:center;line-height:125%;letter-spacing:0px;word-spacing:0px;text-anchor:middle;color:#000000;fill:#bcbcbc;fill-opacity:1;fill-rule:nonzero;stroke:none;stroke-width:10;marker:none;visibility:visible;display:inline;overflow:visible;enable-background:accumulate;font-family:DejaVu Sans;-inkscape-font-specification:Sans Bold"
       d="m 146.98301,359.72712 0,-27.00538 -87.092334,0 0,-85.06693 -19.578898,0 -41.183198,85.06693 -51.310214,0 0,27.00538 48.609677,0 0,266.94677 c 0,68.86364 51.310238,76.96532 74.939918,76.96532 34.431819,0 66.838329,-17.55351 86.417199,-29.70591 l -5.40107,-14.17783 c -16.20321,6.75134 -31.0562,8.77675 -47.93454,8.77675 -22.95455,0 -44.150516,-16.2049 -44.558874,-67.51344 l 0,-241.29166 87.092334,0" />
    <path
       inkscape:connector-curvature="0"
       id="path3045"
       style="font-size:675.13439941px;font-style:normal;font-variant:normal;font-weight:bold;font-stretch:normal;text-align:center;line-height:125%;letter-spacing:0px;word-spacing:0px;text-anchor:middle;color:#000000;fill:#bcbcbc;fill-opacity:1;fill-rule:nonzero;stroke:none;stroke-width:10;marker:none;visibility:visible;display:inline;overflow:visible;enable-background:accumulate;font-family:Utopia;-inkscape-font-specification:Utopia Bold"
       d="m 290.87189,198.63868 -4.72594,-4.05081 -137.05228,18.22863 0,24.30484 23.6297,4.05081 c 10.80214,2.0254 16.20323,8.10164 16.20323,35.10699 l 0,415.20765 21.6043,12.15242 36.45726,-22.95457 c 24.30481,12.82754 56.71133,22.95457 100.59502,22.95457 96.54412,0 176.88522,-32.4066 176.88522,-184.98682 0,-110.0468 -58.73677,-162.03226 -126.25014,-162.03226 -42.53342,0 -75.61508,22.27946 -107.34637,46.58427 l 0,-204.56572 m 0,286.25699 c 0,-14.17781 0.67514,-28.35566 4.05081,-37.80753 8.77674,-22.95455 24.30487,-38.48266 54.68589,-38.48266 33.08155,0 67.51344,16.87847 67.51344,126.92526 0,85.06685 -17.55355,137.05229 -68.18858,137.05229 -33.08155,0 -50.63508,-18.22866 -55.36102,-43.2086 -2.0254,-10.12701 -2.70054,-24.97999 -2.70054,-37.80753 l 0,-106.67123" />
    <path
       sodipodi:nodetypes="csssccsssc"
       inkscape:connector-curvature="0"
       id="path3047"
       style="font-size:675.13439941px;font-style:normal;font-variant:normal;font-weight:bold;font-stretch:normal;text-align:center;line-height:125%;letter-spacing:0px;word-spacing:0px;text-anchor:middle;color:#000000;fill:#bcbcbc;fill-opacity:1;fill-rule:nonzero;stroke:none;stroke-width:10;marker:none;visibility:visible;display:inline;overflow:visible;enable-background:accumulate;font-family:Utopia;-inkscape-font-specification:Utopia Bold"
       d="m 715.55386,356.62013 c -122.87434,0 -174.85981,65.48814 -174.85981,173.50954 0,108.0214 51.98547,173.50954 174.85981,173.50954 122.1992,0 174.18467,-65.48814 174.18467,-173.50954 0,-108.0214 -51.98547,-173.50954 -174.18467,-173.50954 m -67.51344,173.50954 c 0,-90.46792 19.57894,-142.45336 67.51344,-142.45336 47.25936,0 66.8383,51.98544 66.8383,142.45336 0,90.46792 -19.57894,142.45336 -66.8383,142.45336 -47.9345,0 -67.51344,-51.98544 -67.51344,-142.45336" />
    <path
       sodipodi:nodetypes="csssccsssc"
       inkscape:connector-curvature="0"
       id="path3049"
       style="font-size:675.13439941px;font-style:normal;font-variant:normal;font-weight:bold;font-stretch:normal;text-align:center;line-height:125%;letter-spacing:0px;word-spacing:0px;text-anchor:middle;color:#000000;fill:#bcbcbc;fill-opacity:1;fill-rule:nonzero;stroke:none;stroke-width:10;marker:none;visibility:visible;display:inline;overflow:visible;enable-background:accumulate;font-family:Utopia;-inkscape-font-specification:Utopia Bold"
       d="m 1083.1404,356.62013 c -122.8743,0 -174.8598,65.48814 -174.8598,173.50954 0,108.0214 51.9855,173.50954 174.8598,173.50954 122.1992,0 174.1847,-65.48814 174.1847,-173.50954 0,-108.0214 -51.9855,-173.50954 -174.1847,-173.50954 m -67.5134,173.50954 c 0,-90.46792 19.5789,-142.45336 67.5134,-142.45336 47.2594,0 66.8383,51.98544 66.8383,142.45336 0,90.46792 -19.5789,142.45336 -66.8383,142.45336 -47.9345,0 -67.5134,-51.98544 -67.5134,-142.45336" />
    <path
       sodipodi:nodetypes="cccccssccccscccscccccccsccccc"
       inkscape:connector-curvature="0"
       id="path3051"
       style="font-size:675.13439941px;font-style:normal;font-variant:normal;font-weight:bold;font-stretch:normal;text-align:center;line-height:125%;letter-spacing:0px;word-spacing:0px;text-anchor:middle;color:#000000;fill:#bcbcbc;fill-opacity:1;fill-rule:nonzero;stroke:none;stroke-width:10;marker:none;visibility:visible;display:inline;overflow:visible;enable-background:accumulate;font-family:Utopia;-inkscape-font-specification:Utopia Bold"
       d="m 1385.5692,198.63868 -4.726,-4.05081 -137.0523,18.22863 0,24.30484 23.6297,4.05081 c 10.8022,2.0254 16.2033,8.10164 16.2033,35.10699 l 0,360.52176 c 0,28.35562 -5.4011,31.05619 -43.8838,33.08159 l 0,25.65511 189.7128,0 0,-25.65511 c -38.4826,-2.0254 -43.3808,-4.73043 -43.8837,-33.08159 l 0,-112.74744 1.3502,0 c 22.9546,44.55883 49.96,90.46805 81.0162,131.65121 23.6296,31.05615 50.6351,39.83293 99.9198,39.83293 l 60.7621,0 0,-21.6043 c -14.1778,-5.40107 -22.9545,-13.50271 -43.2086,-36.45726 -45.2339,-50.63503 -83.0415,-103.29562 -118.8236,-160.00685 l 14.8529,-14.85296 c 35.7821,-34.43182 76.9654,-64.13778 133.6767,-76.29019 l 0,-21.6043 -97.8945,0 c -14.853,0 -27.6806,5.40109 -39.833,20.25403 -12.8275,16.87835 -26.3302,36.45728 -41.8583,58.06156 l -48.6097,68.86371 -1.3502,0 0,-313.26236" />
    <rect
       style="color:#000000;fill:#bcbcbc;fill-opacity:1;fill-rule:nonzero;stroke:none;stroke-width:10;marker:none;visibility:visible;display:inline;overflow:visible;enable-background:accumulate"
       id="rect3162"
       width="92.675194"
       height="17.424341"
       x="545.21417"
       y="315.3251"
       rx="10"
       ry="10" />
    <rect
       y="292.98599"
       x="644.84613"
       height="39.763149"
       width="92.675171"
       id="rect3938"
       style="color:#000000;fill:#bcbcbc;fill-opacity:1;fill-rule:nonzero;stroke:none;stroke-width:10;marker:none;visibility:visible;display:inline;overflow:visible;enable-background:accumulate"
       rx="10"
       ry="10" />
    <rect
       style="color:#000000;fill:#bcbcbc;fill-opacity:1;fill-rule:nonzero;stroke:none;stroke-width:10;marker:none;visibility:visible;display:inline;overflow:visible;enable-background:accumulate"
       id="rect3940"
       width="92.675171"
       height="110.06154"
       x="744.47876"
       y="222.68779"
       rx="10"
       ry="10" />
    <rect
       y="60.768093"
       x="844.11066"
       height="271.98135"
       width="92.675232"
       id="rect3942"
       style="color:#000000;fill:#bcbcbc;fill-opacity:1;fill-rule:nonzero;stroke:none;stroke-width:10;marker:none;visibility:visible;display:inline;overflow:visible;enable-background:accumulate"
       rx="10"
       ry="10" />
    <rect
       style="color:#000000;fill:#bcbcbc;fill-opacity:1;fill-rule:nonzero;stroke:none;stroke-width:10;marker:none;visibility:visible;display:inline;overflow:visible;enable-background:accumulate"
       id="rect3944"
       width="92.675232"
       height="379.9888"
       x="943.74261"
       y="-47.239464"
       rx="10"
       ry="10" />
    <rect
       y="155.58014"
       x="1043.3752"
       height="177.16922"
       width="92.675293"
       id="rect3946"
       style="color:#000000;fill:#bcbcbc;fill-opacity:1;fill-rule:nonzero;stroke:none;stroke-width:10;marker:none;visibility:visible;display:inline;overflow:visible;enable-background:accumulate"
       rx="10"
       ry="10" />
    <rect
       style="color:#000000;fill:#bcbcbc;fill-opacity:1;fill-rule:nonzero;stroke:none;stroke-width:10;marker:none;visibility:visible;display:inline;overflow:visible;enable-background:accumulate"
       id="rect3948"
       width="92.675171"
       height="55.015347"
       x="1143.0072"
       y="277.7341"
       rx="10"
       ry="10" />
  </g>
</svg>
